<svg width="27" height="37" viewBox="0 0 27 37" fill="none" xmlns="http://www.w3.org/2000/svg">
<path d="M1.57321 36.5371C0.704365 36.5371 2.47955e-05 35.8328 2.47955e-05 34.9639V26.3762C2.47955e-05 25.9589 0.16577 25.5588 0.4608 25.2638L17.8276 7.89696C18.1226 7.60192 18.2884 7.20178 18.2884 6.78454V1.57298C18.2884 0.704128 18.9927 -0.000213623 19.8615 -0.000213623H24.5811C25.45 -0.000213623 26.1543 0.704128 26.1543 1.57298V10.0427C26.1543 10.46 25.9886 10.8601 25.6935 11.1551L8.32675 28.522C8.03172 28.817 7.86597 29.2171 7.86597 29.6344V34.9639C7.86597 35.8328 7.16163 36.5371 6.29278 36.5371H1.57321Z" fill="currentColor"/>
<rect x="26.1543" y="36.5371" width="11.7989" height="7.86595" rx="1.57319" transform="rotate(180 26.1543 36.5371)" fill="currentColor"/>
<rect x="11.7988" y="7.86621" width="11.7989" height="7.86595" rx="1.57319" transform="rotate(180 11.7988 7.86621)" fill="currentColor"/>
</svg>
